<svg id="Layer_1" data-name="Layer 1" xmlns="http://www.w3.org/2000/svg" xmlns:xlink="http://www.w3.org/1999/xlink" viewBox="0 0 216.83 299.82"><defs><style>.cls-1,.cls-2,.cls-3,.cls-4,.cls-5,.cls-6,.cls-7,.cls-8{opacity:1;}.cls-1{fill:url(#Orange_Yellow);}.cls-2{fill:url(#Orange_Yellow-2);}.cls-3{fill:url(#Orange_Yellow-3);}.cls-4{fill:url(#Orange_Yellow-4);}.cls-5{fill:url(#Orange_Yellow-5);}.cls-6{fill:url(#Orange_Yellow-6);}.cls-7{fill:url(#Orange_Yellow-7);}.cls-8{fill:url(#Orange_Yellow-8);}</style><linearGradient id="Orange_Yellow" x1="247.86" y1="377.32" x2="247.86" y2="526.65" gradientUnits="userSpaceOnUse"><stop offset="0" stop-color="#fff23a"/><stop offset="0.04" stop-color="#fee62d"/><stop offset="0.12" stop-color="#fed41a"/><stop offset="0.2" stop-color="#fdc90f"/><stop offset="0.28" stop-color="#fdc60b"/><stop offset="0.67" stop-color="#f28f3f"/><stop offset="0.89" stop-color="#ed693c"/><stop offset="1" stop-color="#e83e39"/></linearGradient><linearGradient id="Orange_Yellow-2" x1="365.89" y1="394.27" x2="365.89" y2="541" xlink:href="#Orange_Yellow"/><linearGradient id="Orange_Yellow-3" x1="298.49" y1="321.89" x2="298.49" y2="518.5" xlink:href="#Orange_Yellow"/><linearGradient id="Orange_Yellow-4" x1="349.51" y1="297.15" x2="349.51" y2="413.49" xlink:href="#Orange_Yellow"/><linearGradient id="Orange_Yellow-5" x1="391.35" y1="335.95" x2="391.35" y2="362.73" xlink:href="#Orange_Yellow"/><linearGradient id="Orange_Yellow-6" x1="303.96" y1="241.18" x2="303.96" y2="303.13" xlink:href="#Orange_Yellow"/><linearGradient id="Orange_Yellow-7" x1="242.39" y1="311.46" x2="242.39" y2="407.97" xlink:href="#Orange_Yellow"/><linearGradient id="Orange_Yellow-8" x1="269.71" y1="290.74" x2="269.71" y2="349.34" xlink:href="#Orange_Yellow"/></defs><title>Fire</title><path class="cls-1" d="M205.47,377.32V467.9l84.78,58.75Z" transform="translate(-205.47 -241.18)"/><path class="cls-2" d="M309.49,541,389.7,394.27l32.6,73.37Z" transform="translate(-205.47 -241.18)"/><path class="cls-3" d="M264.35,440.25l35.86,78.25,32.43-58.36L313.07,321.89Z" transform="translate(-205.47 -241.18)"/><path class="cls-4" d="M341,413.49c-8.08-46.43-12.27-67.7-12.27-67.7l30-48.64,11.47,69.61Z" transform="translate(-205.47 -241.18)"/><path class="cls-5" d="M381.42,336l5,26.78,14.85-15.82Z" transform="translate(-205.47 -241.18)"/><path class="cls-6" d="M302.82,303.13l19.56-22.83L303,241.18l-17.45,48.91Z" transform="translate(-205.47 -241.18)"/><path class="cls-7" d="M244,408l20.28-27.23-34-69.28-9.78,49.82Z" transform="translate(-205.47 -241.18)"/><path class="cls-8" d="M256.66,315.52l18,33.82,8.05-27.3-13-31.3Z" transform="translate(-205.47 -241.18)"/></svg>